<svg xmlns="http://www.w3.org/2000/svg" width="154" height="154" viewBox="0 0 154 154">
  <g id="Group_49" data-name="Group 49" transform="translate(-1566.656 -147.656)">
    <circle id="Ellipse_4" data-name="Ellipse 4" cx="77" cy="77" r="77" transform="translate(1566.656 147.656)" fill="#f1eefc"/>
    <g id="Group_44" data-name="Group 44" transform="translate(1606.926 184.495)">
      <circle id="Ellipse_6" data-name="Ellipse 6" cx="1.533" cy="1.533" r="1.533" transform="translate(66.056 80.254)" fill="#9eb7ff"/>
      <circle id="Ellipse_7" data-name="Ellipse 7" cx="3.066" cy="3.066" r="3.066" transform="translate(12.199 -3)" fill="#7966ff" opacity="0.45"/>
      <circle id="Ellipse_8" data-name="Ellipse 8" cx="2.033" cy="2.033" r="2.033" transform="translate(0 67.456)" fill="#fd9d9e" opacity="0.47"/>
      <g id="Group_317" data-name="Group 317" transform="translate(-1.064 -2.833)">
        <g id="Group_40" data-name="Group 40" transform="translate(18.727 10.139)">
          <rect id="Rectangle_3" data-name="Rectangle 3" width="42.267" height="71.708" rx="3" transform="translate(0)" fill="#fff"/>
          <path id="Path_44" data-name="Path 44" d="M79.931,29.518V90.737a3.219,3.219,0,0,1-.883,2.233,2.951,2.951,0,0,1-2.139.922H44.836a2.945,2.945,0,0,1-2.132-.925,3.212,3.212,0,0,1-.876-2.23V29.518a3.091,3.091,0,0,1,3.022-3.155h6.491a1.311,1.311,0,0,1,1.186.781l.9,1.974a1.311,1.311,0,0,0,1.186.781H67.132a1.311,1.311,0,0,0,1.186-.781l.9-1.974a1.311,1.311,0,0,1,1.186-.781h6.5a3.091,3.091,0,0,1,3.023,3.155Z" transform="translate(-39.746 -24.273)" fill="#9eb7ff"/>
          <rect id="Rectangle_4" data-name="Rectangle 4" width="8.74" height="2.129" rx="1.065" transform="translate(18.297 65.697)" fill="#fff"/>
        </g>
        <g id="Group_43" data-name="Group 43" transform="translate(4.599 41.394)">
          <rect id="Rectangle_5" data-name="Rectangle 5" width="29.129" height="21.463" rx="1" transform="translate(20.697 -6.132)" fill="#fff"/>
          <g id="user" transform="translate(27.991 -2.368)">
            <path id="Path_358" data-name="Path 358" d="M8.179,259.484a1.972,1.972,0,0,1,1.212-1.818v-.152a2.4,2.4,0,0,1,.237-1.027,2.863,2.863,0,0,0-1.6-.488H2.878A2.881,2.881,0,0,0,0,258.878V261a.455.455,0,0,0,.454.454H8.179Zm0,0" transform="translate(0 -248.73)" fill="#9eb7ff"/>
            <path id="Path_359" data-name="Path 359" d="M91.39,3.029A3.029,3.029,0,1,1,88.361,0,3.029,3.029,0,0,1,91.39,3.029Zm0,0" transform="translate(-82.909)" fill="#9eb7ff"/>
          </g>
          <g id="Group_1537" data-name="Group 1537" transform="translate(-215.055 -247.885)">
            <g id="Group_1536" data-name="Group 1536" transform="translate(252.249 252.888)">
              <g id="Group_1535" data-name="Group 1535">
                <circle id="Ellipse_106" data-name="Ellipse 106" cx="0.219" cy="0.219" r="0.219" transform="translate(2.645 3.563)" fill="#b5c8ff"/>
                <path id="Path_2946" data-name="Path 2946" d="M255.845,257.159h-2.722a.437.437,0,0,1-.437-.437v-1.793a.438.438,0,0,1,.437-.437h3.148a.442.442,0,0,1,.121.014.219.219,0,0,0,.12-.42.876.876,0,0,0-.241-.03h-.263v-.772a1.312,1.312,0,0,0-2.623,0v.772h-.262a.875.875,0,0,0-.874.874v1.792a.876.876,0,0,0,.874.874h2.722a.219.219,0,0,0,0-.437Zm-2.023-3.875a.875.875,0,0,1,1.749,0v.772h-1.749Z" transform="translate(-252.249 -252)" fill="#b5c8ff"/>
                <circle id="Ellipse_107" data-name="Ellipse 107" cx="0.219" cy="0.219" r="0.219" transform="translate(1.825 3.563)" fill="#b5c8ff"/>
                <path id="Path_2947" data-name="Path 2947" d="M259.084,256.845a.776.776,0,0,0-1.553.009.219.219,0,0,0,.437,0,.339.339,0,0,1,.679,0v.006a.338.338,0,0,1-.206.306.582.582,0,0,0-.351.537v.189a.219.219,0,0,0,.437,0V257.7a.145.145,0,0,1,.086-.135.776.776,0,0,0,.471-.714Z" transform="translate(-253.836 -253.225)" fill="#b5c8ff"/>
                <circle id="Ellipse_108" data-name="Ellipse 108" cx="0.219" cy="0.219" r="0.219" transform="translate(4.252 5.159)" fill="#b5c8ff"/>
                <circle id="Ellipse_109" data-name="Ellipse 109" cx="0.219" cy="0.219" r="0.219" transform="translate(1.006 3.563)" fill="#b5c8ff"/>
              </g>
            </g>
          </g>
        </g>
        <g id="Group_41" data-name="Group 41" transform="translate(52.125 22.996)">
          <circle id="Ellipse_5" data-name="Ellipse 5" cx="9.199" cy="9.199" r="9.199" fill="#fd9d9e"/>
          <path id="bx-question-mark" d="M13.176,6A2.679,2.679,0,0,0,10.5,8.676h1.07a1.606,1.606,0,0,1,3.211,0c0,.572-.243.784-.793,1.207a6.547,6.547,0,0,0-.656.556,2.084,2.084,0,0,0-.692,1.449v1.07h1.07V11.882a1.114,1.114,0,0,1,.378-.687,5.608,5.608,0,0,1,.552-.464,2.4,2.4,0,0,0,1.211-2.055A2.679,2.679,0,0,0,13.176,6Zm-.535,7.492h1.07v1.07h-1.07Z" transform="translate(-3.977 -1.083)" fill="#fff"/>
        </g>
      </g>
    </g>
  </g>
</svg>
