<svg xmlns="http://www.w3.org/2000/svg" xmlns:xlink="http://www.w3.org/1999/xlink" width="29" height="29" viewBox="0 0 29 29">
  <defs>
    <clipPath id="clip-path">
      <rect id="Rectangle_449" data-name="Rectangle 449" width="29" height="29" transform="translate(212.632 471.113)" fill="#fff" stroke="#707070" stroke-width="1"/>
    </clipPath>
  </defs>
  <g id="Mask_Group_11" data-name="Mask Group 11" transform="translate(-212.632 -471.113)" clip-path="url(#clip-path)">
    <g id="Group_251" data-name="Group 251" transform="translate(212.874 473.009)">
      <g id="bank" transform="translate(0 0)">
        <g id="Group_247" data-name="Group 247" transform="translate(0)">
          <g id="Group_223" data-name="Group 223" transform="translate(4.962 15.51)">
            <path id="Path_212" data-name="Path 212" d="M100.271,316.394v4.495h1.135c.167,0,.306.1.306.228v1.439h4.032v-1.439c0-.126.138-.228.308-.228h1.135v-4.495h-1.135c-.169,0-.308-.1-.308-.227v-1.441h-4.032v1.441c0,.124-.138.227-.306.227Z" transform="translate(-100.271 -314.727)" fill="#b6b1b7" fill-rule="evenodd"/>
          </g>
          <g id="Group_224" data-name="Group 224" transform="translate(13.299 15.51)">
            <path id="Path_213" data-name="Path 213" d="M268.727,316.394v4.495h1.188c.177,0,.322.1.322.228v1.439h4.219v-1.439c0-.126.145-.228.322-.228h1.188v-4.495h-1.188c-.177,0-.322-.1-.322-.227v-1.441h-4.219v1.441c0,.124-.145.227-.322.227Z" transform="translate(-268.727 -314.727)" fill="#b6b1b7" fill-rule="evenodd"/>
          </g>
          <g id="Group_225" data-name="Group 225" transform="translate(1.719 1.116)">
            <path id="Path_214" data-name="Path 214" d="M34.732,30.195v6.51h21.9v-6.51L45.683,23.872Z" transform="translate(-34.732 -23.872)" fill="#eceaec" fill-rule="evenodd"/>
          </g>
          <g id="Group_226" data-name="Group 226" transform="translate(0)">
            <path id="Path_215" data-name="Path 215" d="M.134,9.543A1,1,0,0,0,1.5,9.91l.215-.124,10.95-6.323L23.621,9.786l.215.124a1,1,0,0,0,1-1.737L13.22,1.465a1.173,1.173,0,0,0-1.1,0L.5,8.173a1.007,1.007,0,0,0-.367,1.37Z" transform="translate(0 -1.328)" fill="#9fd4fe" fill-rule="evenodd"/>
          </g>
          <g id="Group_227" data-name="Group 227" transform="translate(19.486 16.405)">
            <path id="Path_216" data-name="Path 216" d="M393.738,332.8H397.1v6.041h-3.364Z" transform="translate(-393.738 -332.805)" fill="#ffe07d" fill-rule="evenodd"/>
          </g>
          <g id="Group_228" data-name="Group 228" transform="translate(10.987 16.405)">
            <path id="Path_217" data-name="Path 217" d="M222,332.8h3.364v6.041H222Z" transform="translate(-222 -332.805)" fill="#ffe07d" fill-rule="evenodd"/>
          </g>
          <g id="Group_229" data-name="Group 229" transform="translate(2.488 16.405)">
            <path id="Path_218" data-name="Path 218" d="M50.268,332.8h3.366v6.041H50.268Z" transform="translate(-50.268 -332.805)" fill="#ffe07d" fill-rule="evenodd"/>
          </g>
          <g id="Group_230" data-name="Group 230" transform="translate(1.418 21.673)">
            <path id="Path_219" data-name="Path 219" d="M28.658,440.914l2.465.934,3.04-.934v-1.439a.229.229,0,0,0-.227-.228H28.885a.229.229,0,0,0-.227.228Z" transform="translate(-28.658 -439.246)" fill="#eceaec" fill-rule="evenodd"/>
          </g>
          <g id="Group_231" data-name="Group 231" transform="translate(18.415 21.673)">
            <path id="Path_220" data-name="Path 220" d="M372.1,440.914l2.973.934,2.534-.934v-1.439a.229.229,0,0,0-.228-.228h-5.049a.229.229,0,0,0-.228.228Z" transform="translate(-372.098 -439.246)" fill="#eceaec" fill-rule="evenodd"/>
          </g>
          <g id="Group_232" data-name="Group 232" transform="translate(9.916 21.673)">
            <path id="Path_221" data-name="Path 221" d="M200.363,440.914l2.754.667,2.752-.667v-1.439a.229.229,0,0,0-.228-.228h-5.049a.229.229,0,0,0-.228.228Z" transform="translate(-200.363 -439.246)" fill="#eceaec" fill-rule="evenodd"/>
          </g>
          <g id="Group_233" data-name="Group 233" transform="translate(0.001 23.34)">
            <path id="Path_222" data-name="Path 222" d="M.245,474.813h24.87a.235.235,0,0,0,.234-.234v-1.4a.235.235,0,0,0-.234-.234H.245a.235.235,0,0,0-.234.234v1.4a.235.235,0,0,0,.234.234Z" transform="translate(-0.011 -472.945)" fill="#9fd4fe" fill-rule="evenodd"/>
          </g>
          <g id="Group_234" data-name="Group 234" transform="translate(11.501 4.395)">
            <path id="Path_223" data-name="Path 223" d="M232.4,91.356a1.224,1.224,0,1,0,1.224-1.224A1.224,1.224,0,0,0,232.4,91.356Z" transform="translate(-232.398 -90.132)" fill="#ffe07d" fill-rule="evenodd"/>
          </g>
          <g id="Group_235" data-name="Group 235" transform="translate(1.719 2.135)">
            <path id="Path_224" data-name="Path 224" d="M45.683,44.459l-10.95,6.323V52.2l10.95-6.323L56.634,52.2V50.782Z" transform="translate(-34.732 -44.459)" fill="#dad8db" fill-rule="evenodd"/>
          </g>
          <g id="Group_236" data-name="Group 236" transform="translate(11.501 4.395)">
            <path id="Path_225" data-name="Path 225" d="M233.623,90.132a1.225,1.225,0,0,0-1.158,1.623,1.224,1.224,0,0,1,2.292.059,1.21,1.21,0,0,0,.09-.458A1.225,1.225,0,0,0,233.623,90.132Z" transform="translate(-232.398 -90.132)" fill="#ffc269" fill-rule="evenodd"/>
          </g>
          <g id="Group_237" data-name="Group 237" transform="translate(2.488 17.178)">
            <path id="Path_226" data-name="Path 226" d="M50.268,348.43h3.366v1.223H50.268Z" transform="translate(-50.268 -348.43)" fill="#ffc269" fill-rule="evenodd"/>
          </g>
          <g id="Group_238" data-name="Group 238" transform="translate(10.987 17.178)">
            <path id="Path_227" data-name="Path 227" d="M222,348.43h3.364v1.223H222Z" transform="translate(-222 -348.43)" fill="#ffc269" fill-rule="evenodd"/>
          </g>
          <g id="Group_239" data-name="Group 239" transform="translate(19.486 17.178)">
            <path id="Path_228" data-name="Path 228" d="M393.738,348.43H397.1v1.223h-3.364Z" transform="translate(-393.738 -348.43)" fill="#ffc269" fill-rule="evenodd"/>
          </g>
          <g id="Group_240" data-name="Group 240" transform="translate(1.418 15.204)">
            <path id="Path_229" data-name="Path 229" d="M29.728,310.521h4.208a.228.228,0,0,0,.227-.227v-1.747h-5.5v1.747a.228.228,0,0,0,.227.227Z" transform="translate(-28.658 -308.547)" fill="#eceaec" fill-rule="evenodd"/>
          </g>
          <g id="Group_241" data-name="Group 241" transform="translate(9.916 15.204)">
            <path id="Path_230" data-name="Path 230" d="M201.434,310.521h4.207a.229.229,0,0,0,.228-.227v-1.747h-5.506v1.747a.229.229,0,0,0,.228.227Z" transform="translate(-200.363 -308.547)" fill="#eceaec" fill-rule="evenodd"/>
          </g>
          <g id="Group_242" data-name="Group 242" transform="translate(18.415 15.204)">
            <path id="Path_231" data-name="Path 231" d="M372.326,310.521h5.049a.229.229,0,0,0,.228-.227v-1.747H372.1v1.747A.229.229,0,0,0,372.326,310.521Z" transform="translate(-372.098 -308.547)" fill="#eceaec" fill-rule="evenodd"/>
          </g>
          <g id="Group_243" data-name="Group 243" transform="translate(1.418 15.51)">
            <path id="Path_232" data-name="Path 232" d="M28.658,314.73h5.5v.895h-5.5Z" transform="translate(-28.658 -314.73)" fill="#dad8db" fill-rule="evenodd"/>
          </g>
          <g id="Group_244" data-name="Group 244" transform="translate(9.916 15.51)">
            <path id="Path_233" data-name="Path 233" d="M200.363,314.73h5.506v.895h-5.506Z" transform="translate(-200.363 -314.73)" fill="#dad8db" fill-rule="evenodd"/>
          </g>
          <g id="Group_245" data-name="Group 245" transform="translate(18.415 15.51)">
            <path id="Path_234" data-name="Path 234" d="M372.1,314.73H377.6v.895H372.1Z" transform="translate(-372.098 -314.73)" fill="#dad8db" fill-rule="evenodd"/>
          </g>
          <g id="Group_246" data-name="Group 246" transform="translate(0.001 13.643)">
            <path id="Path_235" data-name="Path 235" d="M1.429,278.867H25.116a.235.235,0,0,0,.234-.234v-1.4a.235.235,0,0,0-.234-.234H.245a.235.235,0,0,0-.234.234v1.4a.235.235,0,0,0,.234.234Z" transform="translate(-0.011 -277)" fill="#9fd4fe" fill-rule="evenodd"/>
          </g>
        </g>
        <g id="Group_248" data-name="Group 248" transform="translate(5.913 8.344)">
          <path id="Path_236" data-name="Path 236" d="M121.621,172.317a1.064,1.064,0,0,0-.9-1.635h-.863a.382.382,0,0,0-.382.382v2.97a.382.382,0,0,0,.382.382h0l1.012,0a1.181,1.181,0,0,0,.748-2.1Zm-.9-.871a.3.3,0,1,1,0,.6h-.48v-.6Zm.151,2.2-.631,0v-.835h.631a.417.417,0,0,1,0,.834Z" transform="translate(-119.477 -170.645)" fill="#6f6571"/>
          <path id="Path_237" data-name="Path 237" d="M187.146,170.971l0-.01a.448.448,0,0,0-.416-.279h0a.448.448,0,0,0-.416.279l0,.009-1.115,2.928a.382.382,0,0,0,.715.272l.184-.483h1.264l.182.482a.382.382,0,1,0,.715-.27Zm-.765,1.951.343-.9.34.9Z" transform="translate(-181.915 -170.645)" fill="#6f6571"/>
          <path id="Path_238" data-name="Path 238" d="M266.5,170.682h0a.382.382,0,0,0-.379.386l.017,1.773-1.373-1.989a.382.382,0,0,0-.7.217v2.964a.382.382,0,0,0,.765,0V172.3l1.307,1.893a.421.421,0,0,0,.476.175.437.437,0,0,0,.3-.434l-.028-2.869a.382.382,0,0,0-.382-.379Z" transform="translate(-256.911 -170.645)" fill="#6f6571"/>
          <path id="Path_239" data-name="Path 239" d="M346.38,173.044l-1.336-1.289,1.222-1.123a.382.382,0,0,0-.518-.563l-.976.9v-.654a.382.382,0,1,0-.765,0v3.007a.382.382,0,1,0,.765,0v-.763l1.076,1.038a.382.382,0,0,0,.531-.55Z" transform="translate(-332.896 -169.93)" fill="#6f6571"/>
        </g>
      </g>
      <g id="Group_250" data-name="Group 250" transform="translate(19.662 2.989)">
        <path id="Path_240" data-name="Path 240" d="M55.428,51a4.427,4.427,0,1,0,4.427,4.427A4.432,4.432,0,0,0,55.428,51Z" transform="translate(-51 -51)" fill="#ffe07d"/>
        <path id="Path_241" data-name="Path 241" d="M256,51v8.855A4.427,4.427,0,0,0,256,51Z" transform="translate(-251.573 -51)" fill="#ffe07d"/>
        <g id="Group_249" data-name="Group 249" transform="translate(2.018 2.018)">
          <path id="Path_242" data-name="Path 242" d="M146.332,217.351l-.305.305a.54.54,0,1,1-.764-.764l.916-.916a.541.541,0,0,1,.764,0,.324.324,0,0,0,.458-.458,1.189,1.189,0,0,0-1.68,0l-.916.916a1.188,1.188,0,1,0,1.68,1.68l.305-.305a.324.324,0,0,0-.458-.458Z" transform="translate(-144.458 -213.643)" fill="#f9f9f9"/>
          <path id="Path_243" data-name="Path 243" d="M227.871,144.767l-.305.305a.324.324,0,0,0,.458.458l.305-.305a.54.54,0,0,1,.763.764l-.916.916a.541.541,0,0,1-.763,0,.324.324,0,0,0-.458.458,1.189,1.189,0,0,0,1.68,0l.916-.916a1.188,1.188,0,1,0-1.68-1.68Z" transform="translate(-225.08 -144.419)" fill="#f9f9f9"/>
        </g>
      </g>
    </g>
  </g>
</svg>
