<svg xmlns="http://www.w3.org/2000/svg" width="154" height="154" viewBox="0 0 154 154">
  <g id="Group_49" data-name="Group 49" transform="translate(-1566.656 -147.656)">
    <circle id="Ellipse_4" data-name="Ellipse 4" cx="77" cy="77" r="77" transform="translate(1566.656 147.656)" fill="#f1eefc"/>
    <g id="Group_44" data-name="Group 44" transform="translate(1606.095 182.495)">
      <g id="Group_40" data-name="Group 40" transform="translate(18.727 10.139)">
        <rect id="Rectangle_3" data-name="Rectangle 3" width="42.267" height="71.708" rx="3" transform="translate(0)" fill="#fff"/>
        <path id="Path_44" data-name="Path 44" d="M79.931,29.518V90.737a3.219,3.219,0,0,1-.883,2.233,2.951,2.951,0,0,1-2.139.922H44.836a2.945,2.945,0,0,1-2.132-.925,3.212,3.212,0,0,1-.876-2.23V29.518a3.091,3.091,0,0,1,3.022-3.155h6.491a1.311,1.311,0,0,1,1.186.781l.9,1.974a1.311,1.311,0,0,0,1.186.781H67.132a1.311,1.311,0,0,0,1.186-.781l.9-1.974a1.311,1.311,0,0,1,1.186-.781h6.5a3.091,3.091,0,0,1,3.023,3.155Z" transform="translate(-39.746 -24.273)" fill="#9eb7ff"/>
        <rect id="Rectangle_4" data-name="Rectangle 4" width="8.74" height="2.129" rx="1.065" transform="translate(18.297 65.697)" fill="#fff"/>
      </g>
      <g id="Group_41" data-name="Group 41" transform="translate(52.125 22.996)">
        <circle id="Ellipse_5" data-name="Ellipse 5" cx="9.199" cy="9.199" r="9.199" fill="#e20843"/>
        <path id="lock" d="M6.95,3.882a.993.993,0,0,1,.976.976V9.833a.992.992,0,0,1-.976.976H1a.965.965,0,0,1-.709-.291A.938.938,0,0,1,0,9.833V4.858a.938.938,0,0,1,.291-.686A.965.965,0,0,1,1,3.882h.488v-1A2.394,2.394,0,0,1,2.22,1.127,2.393,2.393,0,0,1,3.975.395a2.358,2.358,0,0,1,1.743.732,2.412,2.412,0,0,1,.721,1.755v1H6.95ZM3.964,8.345a.95.95,0,0,0,.7-.291,1.01,1.01,0,0,0,0-1.418.982.982,0,0,0-1.395,0,1.01,1.01,0,0,0,0,1.418.951.951,0,0,0,.7.291ZM5.509,3.882v-1A1.476,1.476,0,0,0,5.056,1.8a1.489,1.489,0,0,0-1.093-.453A1.452,1.452,0,0,0,2.882,1.8a1.5,1.5,0,0,0-.442,1.081v1H5.509Z" transform="translate(5.235 3.597)" fill="#fff"/>
      </g>
      <circle id="Ellipse_6" data-name="Ellipse 6" cx="1.533" cy="1.533" r="1.533" transform="translate(72.056 81.254)" fill="#9eb7ff"/>
      <circle id="Ellipse_7" data-name="Ellipse 7" cx="3.066" cy="3.066" r="3.066" transform="translate(9.199)" fill="#7966ff" opacity="0.45"/>
      <circle id="Ellipse_8" data-name="Ellipse 8" cx="1.533" cy="1.533" r="1.533" transform="translate(0 67.456)" fill="#fd9d9e" opacity="0.47"/>
    </g>
  </g>
</svg>
