<svg xmlns="http://www.w3.org/2000/svg" xmlns:xlink="http://www.w3.org/1999/xlink" width="314.639" height="314.639" viewBox="0 0 314.639 314.639">
  <defs>
    <clipPath id="clip-path">
      <circle id="Ellipse_3" data-name="Ellipse 3" cx="96.338" cy="96.338" r="96.338" transform="matrix(0.158, -0.988, 0.988, 0.158, 0, 190.268)" fill="none"/>
    </clipPath>
  </defs>
  <g id="register_page_screen" transform="translate(287.303 19.313)">
    <circle id="Ellipse_2" data-name="Ellipse 2" cx="111.242" cy="111.242" r="111.242" transform="translate(-287.303 138.006) rotate(-45)" fill="#f1eefc"/>
    <circle id="Ellipse_1" data-name="Ellipse 1" cx="96.338" cy="96.338" r="96.338" transform="matrix(0.158, -0.988, 0.988, 0.158, -240.515, 233.496)" fill="#9eb7ff"/>
    <g id="Group_34" data-name="Group 34" transform="translate(-240.515 43.228)">
      <g id="Group_29" data-name="Group 29" transform="translate(0)">
        <g id="Group_28" data-name="Group 28" clip-path="url(#clip-path)">
          <g id="Group_27" data-name="Group 27" transform="translate(34.327 17.82)">
            <g id="Group_12" data-name="Group 12" transform="translate(0 93.852)">
              <path id="Path_8" data-name="Path 8" d="M-134.574,75.838h-64.873C-223.5,75.838-243,94.532-243,117.592v85.734H-91.018V117.592C-91.018,94.532-110.519,75.838-134.574,75.838Z" transform="translate(243 -75.838)" fill="#f2f2f2"/>
              <g id="Group_11" data-name="Group 11" transform="translate(25.801 35.431)">
                <path id="Path_9" data-name="Path 9" d="M-218.662,99.856a.454.454,0,0,0-.454.454v16.225l-8.922-21.068a.45.45,0,0,0-.593-.242.453.453,0,0,0-.24.6l9.755,23.04v68.386a.454.454,0,0,0,.454.454.452.452,0,0,0,.452-.454V100.31A.452.452,0,0,0-218.662,99.856Z" transform="translate(228.908 -95.189)" fill="#fff"/>
                <path id="Path_10" data-name="Path 10" d="M-168.917,95.225a.453.453,0,0,0-.6.242l-8.534,20.155v-15.16a.454.454,0,0,0-.454-.454.454.454,0,0,0-.454.454v17.3l-.35.826a.452.452,0,0,0,.24.6.466.466,0,0,0,.11.022v68.038a.454.454,0,0,0,.454.454.454.454,0,0,0,.454-.454v-69.3l9.369-22.128A.453.453,0,0,0-168.917,95.225Z" transform="translate(270.094 -95.189)" fill="#fff"/>
              </g>
            </g>
            <g id="Group_25" data-name="Group 25" transform="translate(45.057)">
              <g id="Group_24" data-name="Group 24">
                <g id="Group_23" data-name="Group 23">
                  <g id="Group_15" data-name="Group 15">
                    <g id="Group_13" data-name="Group 13" transform="translate(10.2 84.386)">
                      <path id="Path_11" data-name="Path 11" d="M-176.788,74.548a13.215,13.215,0,0,1-2.843.315h-23.547a13.228,13.228,0,0,1-2.843-.315,13.193,13.193,0,0,1-6.8-3.88v8.239A21.416,21.416,0,0,0-191.4,100.323,21.416,21.416,0,0,0-169.99,78.907V70.668A13.193,13.193,0,0,1-176.788,74.548Z" transform="translate(212.82 -70.668)" fill="#f9d9eb"/>
                      <path id="Path_12" data-name="Path 12" d="M-206.264,73.1a13.228,13.228,0,0,1-2.843-.315,20.933,20.933,0,0,0,14.618,5.755,20.932,20.932,0,0,0,14.616-5.755,13.215,13.215,0,0,1-2.843.315Z" transform="translate(215.905 -68.907)" fill="#ef92c7" opacity="0.46"/>
                    </g>
                    <g id="Group_14" data-name="Group 14">
                      <path id="Path_13" data-name="Path 13" d="M-214.918,55.629a.427.427,0,0,1,.007-.048c-.053.022-.1.064-.154.064a.443.443,0,0,1-.443-.443,4.182,4.182,0,0,1,3.748-4.524V48.546c-.2-.275-.37-.566-.538-.859a8.3,8.3,0,0,0-6.093,7.986,8.329,8.329,0,0,0,6.632,8.153v-3.4A5.643,5.643,0,0,1-214.918,55.629Z" transform="translate(218.391 -5.377)" fill="#f9d9eb"/>
                      <path id="Path_14" data-name="Path 14" d="M-180.783,55.717a8.316,8.316,0,0,0-6.4-8.082c-.1.244-.192.487-.293.731V50.46c.183.075.372.146.546.233a4.215,4.215,0,0,1,3.973,4.553.443.443,0,0,1-.443.443c-.011,0-.016-.011-.027-.013,0,2.272-1.653,4.222-4.048,5.209v3A8.329,8.329,0,0,0-180.783,55.717Z" transform="translate(244.078 -5.42)" fill="#f9d9eb"/>
                      <path id="Path_15" data-name="Path 15" d="M-183.844,53.521a3.369,3.369,0,0,0-3.33-3.684.429.429,0,0,1-.3-.126V59.16c2.395-.987,4.046-2.937,4.048-5.209A.438.438,0,0,1-183.844,53.521Z" transform="translate(244.078 -3.695)" fill="#ef92c7"/>
                      <path id="Path_16" data-name="Path 16" d="M-216.2,53.441a.418.418,0,0,1-.289.379.431.431,0,0,0-.007.048,5.643,5.643,0,0,0,3.158,4.8V49.808A3.3,3.3,0,0,0-216.2,53.441Z" transform="translate(219.967 -3.614)" fill="#ef92c7"/>
                      <path id="Path_17" data-name="Path 17" d="M-187.173,49.394c.006,0,.1,0,.242.016-.174-.086-.363-.157-.546-.233v.342A.434.434,0,0,1-187.173,49.394Z" transform="translate(244.078 -4.138)" fill="#ef92c7" opacity="0.46"/>
                      <path id="Path_18" data-name="Path 18" d="M-187.477,49.422v.633a.429.429,0,0,0,.3.126,3.369,3.369,0,0,1,3.33,3.684.438.438,0,0,0,.416.43c.011,0,.016.013.027.013a.443.443,0,0,0,.443-.443,4.215,4.215,0,0,0-3.973-4.553c-.143-.013-.236-.016-.242-.016A.434.434,0,0,0-187.477,49.422Z" transform="translate(244.078 -4.04)" fill="#243762"/>
                      <path id="Path_19" data-name="Path 19" d="M-216.816,53.845a.443.443,0,0,0,.443.443c.059,0,.1-.042.154-.064a.418.418,0,0,0,.289-.379,3.3,3.3,0,0,1,2.862-3.633v-.892A4.182,4.182,0,0,0-216.816,53.845Z" transform="translate(219.7 -4.019)" fill="#243762"/>
                      <path id="Path_20" data-name="Path 20" d="M-162.784,70.594v-3.07c.1-.244.2-.487.293-.731.547-1.38,1.034-2.748,1.558-3.823,4.268-8.757,7-22.837-5.769-24.543a12.649,12.649,0,0,0-1.73-.114,12.907,12.907,0,0,1-11.04-6.179l-.049-.079a16.323,16.323,0,0,0-13.726-7.477,16.709,16.709,0,0,0-16.306,17.231,8.049,8.049,0,0,0-7.089,5.165,13.892,13.892,0,0,0-.311,6.566,57.5,57.5,0,0,0,2.184,9.8,18.224,18.224,0,0,0,1.479,3.554c.168.293.342.584.538.859v32.2a13.148,13.148,0,0,0,3.568,9.017,13.193,13.193,0,0,0,6.8,3.88,13.228,13.228,0,0,0,2.843.315H-176a13.215,13.215,0,0,0,2.843-.315,13.193,13.193,0,0,0,6.8-3.88,13.141,13.141,0,0,0,3.57-9.017V70.594Z" transform="translate(219.385 -24.578)" fill="#243762"/>
                    </g>
                  </g>
                  <g id="Group_17" data-name="Group 17" transform="translate(10.132 25.188)">
                    <path id="Path_21" data-name="Path 21" d="M-211.394,64.66V46.766c0-4.656,3.31-8.431,7.393-8.431h-.947a8.133,8.133,0,0,0-7.909,8.34v17.7a8.258,8.258,0,0,0,6.11,8.115A8.492,8.492,0,0,1-211.394,64.66Z" transform="translate(212.857 -38.335)" fill="#f9d9eb"/>
                    <path id="Path_22" data-name="Path 22" d="M-193.414,38.335h-.813c4.083,0,7.393,3.775,7.393,8.431V64.66a8.537,8.537,0,0,1-4.453,7.736,8.28,8.28,0,0,0,5.78-8.025v-17.7A8.132,8.132,0,0,0-193.414,38.335Z" transform="translate(228.337 -38.335)" fill="#f9d9eb"/>
                    <path id="Path_23" data-name="Path 23" d="M-211.394,64.66V46.766c0-4.656,3.31-8.431,7.393-8.431h-.947a8.133,8.133,0,0,0-7.909,8.34v17.7a8.258,8.258,0,0,0,6.11,8.115A8.492,8.492,0,0,1-211.394,64.66Z" transform="translate(212.857 -38.335)" fill="#ef92c7" opacity="0.46"/>
                    <path id="Path_24" data-name="Path 24" d="M-193.414,38.335h-.813c4.083,0,7.393,3.775,7.393,8.431V64.66a8.537,8.537,0,0,1-4.453,7.736,8.28,8.28,0,0,0,5.78-8.025v-17.7A8.132,8.132,0,0,0-193.414,38.335Z" transform="translate(228.337 -38.335)" fill="#ef92c7" opacity="0.46"/>
                    <g id="Group_16" data-name="Group 16" transform="translate(1.463)">
                      <path id="Path_25" data-name="Path 25" d="M-179.411,38.335h-1.219a11.89,11.89,0,0,1-11.714,9.889,11.89,11.89,0,0,1-11.712-9.889h-.608c-4.083,0-7.393,3.775-7.393,8.431V64.66a8.492,8.492,0,0,0,4.647,7.825,6.578,6.578,0,0,0,2.746.606h4.35a6.927,6.927,0,0,1,6.4-4.348h4.639a6.923,6.923,0,0,1,6.4,4.348h3.459a6.59,6.59,0,0,0,2.94-.7,8.537,8.537,0,0,0,4.453-7.736V46.766C-172.018,42.11-175.326,38.335-179.411,38.335Z" transform="translate(212.058 -38.335)" fill="#f9d9eb"/>
                    </g>
                  </g>
                  <g id="Group_22" data-name="Group 22" transform="translate(16.386 38.497)">
                    <path id="Path_26" data-name="Path 26" d="M-194.768,53.4h0a1.042,1.042,0,0,0,1.042-1.042V50.273a1.042,1.042,0,0,0-1.042-1.042h0a1.042,1.042,0,0,0-1.042,1.042v2.084A1.042,1.042,0,0,0-194.768,53.4Z" transform="translate(220.768 -42.59)" fill="#243762"/>
                    <path id="Path_27" data-name="Path 27" d="M-205.972,53.4h0a1.042,1.042,0,0,0,1.042-1.042V50.273a1.042,1.042,0,0,0-1.042-1.042h0a1.042,1.042,0,0,0-1.042,1.042v2.084A1.042,1.042,0,0,0-205.972,53.4Z" transform="translate(211.458 -42.59)" fill="#243762"/>
                    <g id="Group_19" data-name="Group 19" transform="translate(22.923 0.07)">
                      <g id="Group_18" data-name="Group 18">
                        <path id="Path_28" data-name="Path 28" d="M-196.624,49a3.3,3.3,0,0,0,1.747.635c.648.11,1.294.242,1.851.383s1.192.335,1.816.551a3.221,3.221,0,0,0,1.824.269c.542-.161.915-.921.568-2.062a4.7,4.7,0,0,0-3.325-2.992,4.248,4.248,0,0,0-4.173,1.086C-197.08,47.733-197.047,48.6-196.624,49Z" transform="translate(196.921 -45.642)" fill="#243762"/>
                      </g>
                    </g>
                    <g id="Group_21" data-name="Group 21">
                      <g id="Group_20" data-name="Group 20">
                        <path id="Path_29" data-name="Path 29" d="M-208.584,50.934a3.544,3.544,0,0,0,1.966-.244c.666-.211,1.344-.4,1.941-.535s1.294-.26,1.992-.359a3.409,3.409,0,0,0,1.858-.624c.432-.414.408-1.313-.487-2.223a5.075,5.075,0,0,0-4.625-1.218,4.468,4.468,0,0,0-3.411,3.041C-209.646,49.954-209.184,50.754-208.584,50.934Z" transform="translate(209.441 -45.604)" fill="#243762"/>
                      </g>
                    </g>
                    <path id="Path_30" data-name="Path 30" d="M-198.339,66.042l-2.369.134c-1.15.064-2.118-.525-2.162-1.318l-.287-5.077,13.076-.582C-189.7,66.053-193.581,65.773-198.339,66.042Z" transform="translate(214.662 -34.309)" fill="#fff"/>
                    <path id="Path_31" data-name="Path 31" d="M-195.689,60H-200.2a3.1,3.1,0,0,1-2.556-1.344,3.1,3.1,0,0,1-.341-2.865l2.448-9.523a.442.442,0,0,1,.54-.319.444.444,0,0,1,.319.54l-2.463,9.568a2.217,2.217,0,0,0,.229,2.1,2.182,2.182,0,0,0,1.824.959h4.513a.442.442,0,0,1,.443.443A.442.442,0,0,1-195.689,60Z" transform="translate(214.541 -45.326)" fill="#243762"/>
                  </g>
                </g>
              </g>
            </g>
            <g id="Group_26" data-name="Group 26" transform="translate(41.892 87.87)">
              <path id="Path_32" data-name="Path 32" d="M-188.919,94.943l-2.138-4.281-2.589,4.98a1.774,1.774,0,0,1-1.582.912h-3.184a1.718,1.718,0,0,1-1.489-.813l-3.233-5.522-2.142,4.284,4.55,8.53c.007.015.02.026.027.04l-3.919,46.1-.863,10.151a1.159,1.159,0,0,0,.066.5l7.547,20.66a1.167,1.167,0,0,0,2.2-.022l7.067-20.651a1.209,1.209,0,0,0,.06-.471l-4.38-56.09a2.02,2.02,0,0,0,.234-.355Zm-3.964,32.674a.572.572,0,0,1-.029.229l-3.444,10.064a.569.569,0,0,1-1.073.011l-3.678-10.07a.6.6,0,0,1-.033-.242l2-23.472a2.221,2.221,0,0,0,.331.046h4.092l.007,0Z" transform="translate(232.279 -57.906)" fill="#7966ff" opacity="0.89"/>
              <path id="Path_33" data-name="Path 33" d="M-196.69,97.867h-4.092a2.22,2.22,0,0,1-.331-.046l-2,23.472a.6.6,0,0,0,.033.242l3.678,10.07a.569.569,0,0,0,1.073-.011l3.444-10.064a.572.572,0,0,0,.029-.229l-1.829-23.436Z" transform="translate(234.251 -51.59)" fill="#4c65ba" opacity="0.89"/>
              <path id="Path_34" data-name="Path 34" d="M-196.69,97.867h-4.092a2.22,2.22,0,0,1-.331-.046l-2,23.472a.6.6,0,0,0,.033.242l3.678,10.07a.569.569,0,0,0,1.073-.011l3.444-10.064a.572.572,0,0,0,.029-.229l-1.829-23.436Z" transform="translate(234.251 -51.59)" fill="#7966ff"/>
              <path id="Path_35" data-name="Path 35" d="M-204.2,95.6l3.233,5.522a1.718,1.718,0,0,0,1.489.813h3.184a1.774,1.774,0,0,0,1.582-.912l2.589-4.98-6.15-12.3Z" transform="translate(233.347 -63.286)" fill="#4c65ba" opacity="0.89"/>
              <path id="Path_36" data-name="Path 36" d="M-204.2,95.6l3.233,5.522a1.718,1.718,0,0,0,1.489.813h3.184a1.774,1.774,0,0,0,1.582-.912l2.589-4.98-6.15-12.3Z" transform="translate(233.347 -63.286)" fill="#7966ff"/>
              <path id="Path_37" data-name="Path 37" d="M-161.665,72.571l-23.382,19.087-23.382-19.087L-220.12,90.107-194.3,111.54l1.186-2.373,2.142-4.284,5.927-11.853,6.149,12.3,2.14,4.279.967,1.934,25.817-21.433Z" transform="translate(220.12 -72.571)" fill="#fff"/>
            </g>
          </g>
        </g>
      </g>
      <g id="Group_33" data-name="Group 33" transform="translate(149.322 65.669)">
        <g id="Group_30" data-name="Group 30" transform="translate(15.509)">
          <path id="Path_38" data-name="Path 38" d="M-126.748,75.471a3.312,3.312,0,0,0-4.652,1.745c-.958,2.311-1.93,4.618-2.862,6.939.313-.778,2.382-18.031,2.464-19.609.042-.791.514-3.169-.2-4.38a2.082,2.082,0,0,0-1.619-.789,3.225,3.225,0,0,0-1.935.264,2.855,2.855,0,0,0-1.2,1.45,8.411,8.411,0,0,0-.456,1.862c-.846,5.117-1.734,10.233-2.446,15.372.146-7.054.833-14.036,1.276-21.072a8.447,8.447,0,0,0-.227-3.29,2.866,2.866,0,0,0-2.371-2.041,2.859,2.859,0,0,0-2.479,1.578,8.464,8.464,0,0,0-.809,2.97q-.7,4.842-1.393,9.682-.354,2.452-.707,4.905l-.344,2.387a7.2,7.2,0,0,1-.388,2.289,28.515,28.515,0,0,1,.126-4.343l.159-4.572q.159-4.507.315-9.012a15.376,15.376,0,0,0-.121-3.3,5.169,5.169,0,0,0-1.461-2.9,3.141,3.141,0,0,0-3.056-.76,3.356,3.356,0,0,0-1.7,1.452,8.439,8.439,0,0,0-.857,2.1,62.413,62.413,0,0,0-1.706,8.448q-.67,4.51-1.185,9.039c-.139,1.241-.342,2.95-1.624,3.552a1.973,1.973,0,0,1-2.743-1.218c-.568-2.051-1.075-4.109-1.626-6.163a6.863,6.863,0,0,0-2.47-4.043A4.342,4.342,0,0,0-169,63.583a4.338,4.338,0,0,0-2.6,3.012,8.53,8.53,0,0,0-.022,2.788c1.013,9.949,1.968,19.906,2.922,29.86l30.851,7.492L-126.9,80.781C-125.4,77.233-125.791,76.05-126.748,75.471Z" transform="translate(171.721 -50.712)" fill="#f9d9eb"/>
          <path id="Path_39" data-name="Path 39" d="M-159.555,79.851a.409.409,0,0,0,.315-.33c1.893-10.707-5.879-15.649-5.958-15.7a.414.414,0,0,0-.568.134.411.411,0,0,0,.134.568c.3.189,7.373,4.713,5.581,14.852a.411.411,0,0,0,.333.478A.406.406,0,0,0-159.555,79.851Z" transform="translate(176.618 -39.868)" fill="#ef92c7" opacity="0.46"/>
        </g>
        <g id="Group_32" data-name="Group 32" transform="translate(0 47.962)">
          <g id="Group_31" data-name="Group 31">
            <path id="Path_40" data-name="Path 40" d="M-163.428,77.047a4.9,4.9,0,0,0-6,4.037l-10.755,72.16q-.011.7-.009,1.375c.068,27.888,40.838,30.578,44.528,2.935l8.959-67.093a4.886,4.886,0,0,0-3.689-5.392l-.41-.1-30.851-7.492Z" transform="translate(180.192 -76.908)" fill="#f2f2f2"/>
          </g>
          <path id="Path_41" data-name="Path 41" d="M-135.094,100.466a.889.889,0,0,0,.747-.679.886.886,0,0,0-.665-1.064l-33.934-7.86a.1.1,0,0,1-.073-.075l-1.994-9.881a.878.878,0,0,0-1.044-.694.888.888,0,0,0-.694,1.045l1.994,9.881a1.871,1.871,0,0,0,1.412,1.452l33.934,7.858A.929.929,0,0,0-135.094,100.466Z" transform="translate(186.361 -74.178)" fill="#f9f9f9"/>
          <path id="Path_42" data-name="Path 42" d="M-167.132,87.3a3.1,3.1,0,0,1-2.322-3.722h0a3.105,3.105,0,0,1,3.724-2.323,3.107,3.107,0,0,1,2.322,3.724,3.108,3.108,0,0,1-2.618,2.377A3.061,3.061,0,0,1-167.132,87.3Zm-.6-3.323h0a1.332,1.332,0,0,0,1,1.6,1.334,1.334,0,0,0,1.6-1,1.331,1.331,0,0,0-1-1.595,1.293,1.293,0,0,0-.472-.024A1.337,1.337,0,0,0-167.727,83.973Z" transform="translate(189.048 -73.366)" fill="#f9f9f9"/>
        </g>
      </g>
    </g>
    <g id="Group_35" data-name="Group 35" transform="translate(-252.818 65.669)">
      <path id="Path_43" data-name="Path 43" d="M-228.792,27.1A39.677,39.677,0,0,1-189.115,66.78a39.493,39.493,0,0,1-6.756,22.152c.016.117.262,1.329.419,2.144.742,3.058,2.655,8.664,7.238,12.675,3.554,2.992-7.007,5.363-14.609.341A14.761,14.761,0,0,1-206.99,100l-.031-.046a39.488,39.488,0,0,1-21.771,6.5A39.676,39.676,0,0,1-268.468,66.78,39.676,39.676,0,0,1-228.792,27.1Z" transform="translate(268.468 -27.102)" fill="#7966ff"/>
      <text id="hi_" data-name="hi!" transform="translate(18.288 51.089)" fill="#fff" font-size="42" font-family="SegoeUI, Segoe UI" letter-spacing="-0.054em"><tspan x="0" y="0">hi!</tspan></text>
    </g>
  </g>
</svg>
