<svg xmlns="http://www.w3.org/2000/svg" width="154" height="154" viewBox="0 0 154 154">
  <g id="registration" transform="translate(-129 -85)">
    <circle id="Ellipse_4" data-name="Ellipse 4" cx="77" cy="77" r="77" transform="translate(129 85)" fill="#f1eefc"/>
    <g id="Group_44" data-name="Group 44" transform="translate(168.439 119.84)">
      <g id="Group_40" data-name="Group 40" transform="translate(18.727 10.139)">
        <rect id="Rectangle_3" data-name="Rectangle 3" width="42.267" height="71.708" rx="3" transform="translate(0)" fill="#fff"/>
        <path id="Path_44" data-name="Path 44" d="M79.931,29.518V90.737a3.219,3.219,0,0,1-.883,2.233,2.951,2.951,0,0,1-2.139.922H44.836a2.945,2.945,0,0,1-2.132-.925,3.212,3.212,0,0,1-.876-2.23V29.518a3.091,3.091,0,0,1,3.022-3.155h6.491a1.311,1.311,0,0,1,1.186.781l.9,1.974a1.311,1.311,0,0,0,1.186.781H67.132a1.311,1.311,0,0,0,1.186-.781l.9-1.974a1.311,1.311,0,0,1,1.186-.781h6.5a3.091,3.091,0,0,1,3.023,3.155Z" transform="translate(-39.746 -24.273)" fill="#9eb7ff"/>
        <rect id="Rectangle_4" data-name="Rectangle 4" width="8.74" height="2.129" rx="1.065" transform="translate(18.297 65.697)" fill="#fff"/>
      </g>
      <g id="Group_41" data-name="Group 41" transform="translate(52.125 22.996)">
        <circle id="Ellipse_5" data-name="Ellipse 5" cx="9.199" cy="9.199" r="9.199" fill="#fd9d9e"/>
        <path id="Icon_awesome-check" data-name="Icon awesome-check" d="M3.814,12.786.164,9.137a.561.561,0,0,1,0-.794l.794-.794a.561.561,0,0,1,.794,0l2.458,2.458L9.476,4.742a.561.561,0,0,1,.794,0l.794.794a.561.561,0,0,1,0,.794L4.608,12.786A.561.561,0,0,1,3.814,12.786Z" transform="translate(3.584 -0.332)" fill="#fff"/>
      </g>
      <g id="Group_43" data-name="Group 43" transform="translate(4.599 41.394)">
        <rect id="Rectangle_6" data-name="Rectangle 6" width="26.063" height="15.331" rx="1" transform="translate(1.533 7.665)" fill="#fff" opacity="0.46"/>
        <rect id="Rectangle_5" data-name="Rectangle 5" width="29.129" height="21.463" rx="1" transform="translate(0 0)" fill="#fff"/>
        <g id="Group_42" data-name="Group 42" transform="translate(5.245 5.171)">
          <line id="Line_2" data-name="Line 2" x2="18.05" fill="none" stroke="#7966ff" stroke-linecap="round" stroke-width="1"/>
          <line id="Line_3" data-name="Line 3" x2="18.05" transform="translate(0 5.171)" fill="none" stroke="#7966ff" stroke-linecap="round" stroke-width="1" opacity="0.72"/>
          <line id="Line_4" data-name="Line 4" x2="12.88" transform="translate(2.585 10.341)" fill="none" stroke="#7966ff" stroke-linecap="round" stroke-width="1" opacity="0.39"/>
        </g>
      </g>
      <circle id="Ellipse_6" data-name="Ellipse 6" cx="1.533" cy="1.533" r="1.533" transform="translate(72.056 81.254)" fill="#9eb7ff"/>
      <circle id="Ellipse_7" data-name="Ellipse 7" cx="3.066" cy="3.066" r="3.066" transform="translate(9.199)" fill="#7966ff" opacity="0.45"/>
      <circle id="Ellipse_8" data-name="Ellipse 8" cx="1.533" cy="1.533" r="1.533" transform="translate(0 67.456)" fill="#fd9d9e" opacity="0.47"/>
    </g>
  </g>
</svg>
