<svg xmlns="http://www.w3.org/2000/svg" width="154" height="154" viewBox="0 0 154 154">
  <g id="Group_319" data-name="Group 319" transform="translate(-879 -2235)">
    <circle id="Ellipse_9" data-name="Ellipse 9" cx="77" cy="77" r="77" transform="translate(879 2235)" fill="#f1eefc"/>
    <g id="Group_48" data-name="Group 48" transform="translate(913.65 2269.65)">
      <rect id="Rectangle_3" data-name="Rectangle 3" width="42.457" height="72.031" rx="3" transform="translate(18.811 10.185)" fill="#fff"/>
      <path id="Path_44" data-name="Path 44" d="M80.1,29.532V91.026a3.234,3.234,0,0,1-.887,2.243,2.964,2.964,0,0,1-2.149.926H44.85a2.958,2.958,0,0,1-2.141-.929,3.227,3.227,0,0,1-.88-2.24V29.532a3.1,3.1,0,0,1,3.036-3.169h6.52a1.316,1.316,0,0,1,1.191.785l.906,1.983a1.317,1.317,0,0,0,1.191.785H67.246a1.316,1.316,0,0,0,1.191-.785l.906-1.983a1.317,1.317,0,0,1,1.191-.785h6.531A3.1,3.1,0,0,1,80.1,29.532Z" transform="translate(-20.925 -14.079)" fill="#9eb7ff"/>
      <rect id="Rectangle_4" data-name="Rectangle 4" width="8.78" height="2.139" rx="1.07" transform="translate(37.19 76.177)" fill="#fff"/>
      <circle id="Ellipse_6" data-name="Ellipse 6" cx="1.54" cy="1.54" r="1.54" transform="translate(72.38 81.62)" fill="#9eb7ff"/>
      <circle id="Ellipse_7" data-name="Ellipse 7" cx="3.08" cy="3.08" r="3.08" transform="translate(9.24 0)" fill="#7966ff" opacity="0.45"/>
      <circle id="Ellipse_8" data-name="Ellipse 8" cx="1.54" cy="1.54" r="1.54" transform="translate(0 67.76)" fill="#fd9d9e" opacity="0.47"/>
      <g id="Group_46" data-name="Group 46" transform="translate(55.44 13.86)">
        <circle id="Ellipse_5" data-name="Ellipse 5" cx="9.24" cy="9.24" r="9.24" transform="translate(0)" fill="#fc98a0"/>
        <text id="_2" data-name="2" transform="translate(9.16 11.85)" fill="#fff" font-size="10" font-family="SegoeUI-Bold, Segoe UI" font-weight="700" letter-spacing="0.015em"><tspan x="-2.876" y="0">2</tspan></text>
      </g>
      <g id="Group_45" data-name="Group 45" transform="translate(72.38 58.52)">
        <circle id="Ellipse_11" data-name="Ellipse 11" cx="6.16" cy="6.16" r="6.16" fill="#a9a9fb"/>
        <text id="_1" data-name="1" transform="translate(5.62 9.08)" fill="#fff" font-size="7" font-family="SegoeUI-Bold, Segoe UI" font-weight="700" letter-spacing="0.015em"><tspan x="-2.013" y="0">1</tspan></text>
      </g>
      <g id="Group_47" data-name="Group 47" transform="translate(12.32 44.66)">
        <circle id="Ellipse_10" data-name="Ellipse 10" cx="7.7" cy="7.7" r="7.7" fill="#fb9cc7"/>
        <text id="_4" data-name="4" transform="translate(7.62 10.31)" fill="#fff" font-size="10" font-family="SegoeUI-Bold, Segoe UI" font-weight="700" letter-spacing="0.015em"><tspan x="-2.876" y="0">4</tspan></text>
      </g>
    </g>
  </g>
</svg>
