<svg xmlns="http://www.w3.org/2000/svg" xmlns:xlink="http://www.w3.org/1999/xlink" width="23" height="23" viewBox="0 0 23 23">
  <defs>
    <clipPath id="clip-path">
      <rect id="Rectangle_458" data-name="Rectangle 458" width="23" height="23" transform="translate(2801.265 959.311)" fill="#272727" stroke="#707070" stroke-width="1"/>
    </clipPath>
  </defs>
  <g id="Mask_Group_14" data-name="Mask Group 14" transform="translate(-2801.265 -959.311)" clip-path="url(#clip-path)">
    <path id="notifications" d="M8.576,20.38a1.933,1.933,0,0,1-1.418-.591A1.906,1.906,0,0,1,6.568,18.4h4.016a1.905,1.905,0,0,1-.591,1.394,1.936,1.936,0,0,1-1.418.591Zm6.545-6.049,2.032,2.032v.992H0v-.992l2.032-2.032V8.8A6.356,6.356,0,0,1,3.449,4.715,6.389,6.389,0,0,1,7.041,2.423V1.762A1.431,1.431,0,0,1,7.49.675,1.523,1.523,0,0,1,8.577.25,1.443,1.443,0,0,1,9.64.675a1.472,1.472,0,0,1,.425,1.087v.662A6.4,6.4,0,0,1,13.7,4.716,6.356,6.356,0,0,1,15.122,8.8v5.529Z" transform="translate(2804.189 960.496)" fill="#272727"/>
  </g>
</svg>
