<svg xmlns="http://www.w3.org/2000/svg" width="23" height="23" viewBox="0 0 23 23">
  <path id="help-circled" d="M13.75,2.25a11.5,11.5,0,1,0,11.5,11.5A11.5,11.5,0,0,0,13.75,2.25Zm1.037,16.772a1.45,1.45,0,0,1-1.582,1.453,1.507,1.507,0,1,1,.088-3.013A1.46,1.46,0,0,1,14.787,19.022Zm2.5-6.536a7.408,7.408,0,0,1-1.3,1.165l-.672.462a1.783,1.783,0,0,0-.642.888,5.092,5.092,0,0,0-.108.96.209.209,0,0,1-.231.2H12.323c-.21,0-.236-.123-.231-.185a4.207,4.207,0,0,1,.508-2.12,6.732,6.732,0,0,1,1.822-1.56,2.133,2.133,0,0,0,.488-.5,1.783,1.783,0,0,0,.411-1.021,1.817,1.817,0,0,0-.375-1.17,1.483,1.483,0,0,0-1.325-.586,1.449,1.449,0,0,0-1.3.76,2.506,2.506,0,0,0-.226,1.4h-2.5c0-1.746.457-2.859,1.422-3.516a4.265,4.265,0,0,1,2.454-.642,4.948,4.948,0,0,1,3.178.914,3.179,3.179,0,0,1,1.263,2.7,3.087,3.087,0,0,1-.621,1.848Z" transform="translate(-2.25 -2.25)"/>
</svg>
