<svg xmlns="http://www.w3.org/2000/svg" xmlns:xlink="http://www.w3.org/1999/xlink" width="16" height="16" viewBox="0 0 16 16">
  <defs>
    <clipPath id="clip-path">
      <rect id="Rectangle_491" data-name="Rectangle 491" width="16" height="16" transform="translate(300 315)" fill="#c52929" stroke="#707070" stroke-width="1"/>
    </clipPath>
  </defs>
  <g id="Mask_Group_33" data-name="Mask Group 33" transform="translate(-300 -315)" clip-path="url(#clip-path)">
    <g id="phone-book" transform="translate(252.612 315.1)">
      <path id="Path_392" data-name="Path 392" d="M63.4,0H50.7a.507.507,0,0,0-.542.463V2.5h-.614A.507.507,0,0,0,49,2.963a.507.507,0,0,0,.542.463h.614V4.968h-.614A.507.507,0,0,0,49,5.431a.507.507,0,0,0,.542.463h.614V7.437h-.614A.507.507,0,0,0,49,7.9a.507.507,0,0,0,.542.463h.614V9.906h-.614a.469.469,0,1,0,0,.926h.614v1.543h-.614a.469.469,0,1,0,0,.926h.614v2.037a.507.507,0,0,0,.542.463H63.4a.507.507,0,0,0,.542-.463V.463A.507.507,0,0,0,63.4,0Zm-.542,14.874H51.238V13.3h.614a.469.469,0,1,0,0-.926h-.614V10.832h.614a.469.469,0,1,0,0-.926h-.614V8.363h.614a.507.507,0,0,0,.542-.463.507.507,0,0,0-.542-.463h-.614V5.894h.614a.507.507,0,0,0,.542-.463.507.507,0,0,0-.542-.463h-.614V3.425h.614a.507.507,0,0,0,.542-.463.507.507,0,0,0-.542-.463h-.614V.926H62.863Z" transform="translate(-1.085)" fill="#c52929"/>
      <path id="Path_393" data-name="Path 393" d="M177,145.309a.559.559,0,0,0,1.118,0c0-1.484.906-3.018,2.422-3.018s2.422,1.535,2.422,3.018a.559.559,0,1,0,1.118,0,4.329,4.329,0,0,0-1.836-3.643,2.646,2.646,0,1,0-3.409,0A4.329,4.329,0,0,0,177,145.309Zm2.012-5.664a1.528,1.528,0,1,1,1.528,1.528A1.53,1.53,0,0,1,179.012,139.646Z" transform="translate(-124.262 -133.534)" fill="#c52929"/>
    </g>
  </g>
</svg>
