<svg xmlns="http://www.w3.org/2000/svg" xmlns:xlink="http://www.w3.org/1999/xlink" width="20" height="20" viewBox="0 0 20 20">
  <defs>
    <clipPath id="clip-path">
      <rect id="Rectangle_751" data-name="Rectangle 751" width="20" height="20" transform="translate(329.558 588.629)" fill="#929292" stroke="#707070" stroke-width="1"/>
    </clipPath>
  </defs>
  <g id="Mask_Group_143" data-name="Mask Group 143" transform="translate(-329.558 -588.629)" clip-path="url(#clip-path)">
    <g id="eye" transform="translate(330.45 591.576)">
      <path id="Path_3080" data-name="Path 3080" d="M18.269,15.135A3.135,3.135,0,1,1,15.135,12,3.135,3.135,0,0,1,18.269,15.135Zm-1.567,0a1.567,1.567,0,1,1-1.567-1.567A1.567,1.567,0,0,1,16.7,15.135Z" transform="translate(-6.027 -8.082)" fill="#929292" fill-rule="evenodd"/>
      <path id="Path_3081" data-name="Path 3081" d="M9.675,4.5a9.408,9.408,0,0,1,9.108,7.053,9.407,9.407,0,0,1-18.216,0A9.407,9.407,0,0,1,9.675,4.5Zm0,12.539A7.84,7.84,0,0,1,2.2,11.553a7.84,7.84,0,0,1,14.957,0A7.841,7.841,0,0,1,9.675,17.039Z" transform="translate(-0.567 -4.5)" fill="#929292" fill-rule="evenodd"/>
    </g>
  </g>
</svg>
