<svg xmlns="http://www.w3.org/2000/svg" xmlns:xlink="http://www.w3.org/1999/xlink" width="26" height="26" viewBox="0 0 26 26">
  <defs>
    <clipPath id="clip-path">
      <rect id="Rectangle_495" data-name="Rectangle 495" width="26" height="26" fill="#929292" stroke="#707070" stroke-width="1"/>
    </clipPath>
  </defs>
  <g id="Mask_Group_37" data-name="Mask Group 37" clip-path="url(#clip-path)">
    <g id="Group_343" data-name="Group 343" transform="translate(-2.343 -1.022)">
      <path id="Path_399" data-name="Path 399" d="M13.449,0a6.37,6.37,0,0,0-6.37,6.37,6.279,6.279,0,0,0,.276,1.847L0,15.572v4.247H4.247L11.6,12.465a6.37,6.37,0,0,0,8.218-5.571,6.207,6.207,0,0,0-1.168-4.247A6.37,6.37,0,0,0,13.449,0Zm0,11.325a4.955,4.955,0,0,1-1.416-.212l-.814-.248-.6.6L8.366,13.718l-1-.977-1,1,.976.976L6.221,15.841l-.976-.976-1,1,.976.976L3.659,18.4H1.416V16.16L8.352,9.2l.6-.6-.205-.673a5.054,5.054,0,0,1,2.407-5.974A4.955,4.955,0,0,1,18.4,6.2a4.735,4.735,0,0,1-.771,2.831A4.955,4.955,0,0,1,13.449,11.325Z" transform="matrix(-0.695, -0.719, 0.719, -0.695, 13.787, 28.044)" fill="#929292"/>
      <path id="Path_400" data-name="Path 400" d="M2.831,1.416A1.416,1.416,0,1,1,1.416,0,1.416,1.416,0,0,1,2.831,1.416Z" transform="matrix(-0.695, -0.719, 0.719, -0.695, 7.991, 15.929)" fill="#929292"/>
    </g>
  </g>
</svg>
