<svg xmlns="http://www.w3.org/2000/svg" xmlns:xlink="http://www.w3.org/1999/xlink" width="26" height="26" viewBox="0 0 26 26">
  <defs>
    <clipPath id="clip-path">
      <rect id="Rectangle_572" data-name="Rectangle 572" width="26" height="26" transform="translate(2572 3281)" fill="#fff"/>
    </clipPath>
  </defs>
  <g id="Mask_Group_48" data-name="Mask Group 48" transform="translate(-2572 -3281)" clip-path="url(#clip-path)">
    <path id="alert" d="M28.881,26.064h0l-.043-.075a.978.978,0,0,0-.068-.117L17,5.482a1.116,1.116,0,0,0-2,.088h0L3.315,25.8l.011.007a1.11,1.11,0,0,0-.256.705,1.121,1.121,0,0,0,1.121,1.121H27.855a1.118,1.118,0,0,0,1.026-1.569Zm-12.848-.549a1.605,1.605,0,0,1-1.624-1.6,1.613,1.613,0,1,1,3.227,0,1.6,1.6,0,0,1-1.6,1.6Zm1.6-14.169v8.839h0v.005a.654.654,0,0,1-.654.654H15.075a.655.655,0,0,1-.663-.654v-.005h0V11.369c0-.008,0-.016,0-.024a.651.651,0,0,1,.6-.649v-.005h1.964a.653.653,0,0,1,.657.637h0v.017h0Z" transform="translate(2568.977 3277.735)" fill="#c52929"/>
  </g>
</svg>
